<svg version="1" xmlns="http://www.w3.org/2000/svg" width="346.667" height="346.667" viewBox="0 0 260.000000 260.000000"><path d="M167.5 19.2C157.7 31.1 137.6 61.4 127 80c-4.5 8-8.7 15.1-9.3 15.8-.6.8-2.5 1.2-4.6 1l-3.6-.3-1.7-16.5c-5.5-51.7-6.7-59.3-10-61.4-4.8-3-16.4 11-30 36.1-15.2 28-27.9 58.4-31.8 75.8-2.4 10.4-3.1 12.2-6.7 16.8-1.3 1.6-2.3 3.3-2.3 3.9 0 .5-1.6 2.8-3.5 5.1-4.4 5.1-4.5 8.1-.5 10.2 1.6.8 3.6 1.5 4.5 1.5 2.2 0 1.9 1.6-1.1 5.5-1.9 2.5-2.5 4.3-2.2 7.2l.3 3.8h10l-.3 6.5c-.3 8.6.3 10.9 3.6 12.1 2.7 1 2.7 1.1.7 2.7-2.6 2.2-5.5 6.7-5.5 8.7 0 2 2.7 1.9 17.7-.6 13.3-2.2 15.8-2 14.8 1-.3 1.1.2 2.8 1.4 4.2 1.6 1.9 2.2 2.2 3.2 1.1.7-.6 2.3-1.2 3.6-1.2 1.8 0 2.3.6 2.3 2.5 0 1.4-.4 3.3-.9 4.3-2.7 5.3-3.2 7.2-2.9 10.8.3 3.8.4 3.9 4.5 4.2 3.2.2 5.4-.4 9.8-2.9 5.3-3 6.3-3.2 18.3-3.6 11-.4 14.5-.2 26.1 2.2 13.9 2.8 30.8 8.2 35.1 11.3 6 4.4 10.8 3.7 17.9-2.5 6-5.2 6-3.8.6-22.3-3.8-13.5-4.7-18.1-3.7-19.5 2.1-3.2 8.3-5.8 20.8-8.9 7.6-1.9 15.2-4 16.8-4.7 2.1-1 5.9-5.9 12.8-16.2 13.9-21.1 13.8-22.2-4.2-31.2-13.4-6.6-21.6-12.1-22.9-15.3-.6-1.5-1.7-5.7-2.5-9.3-.7-3.6-2.1-7.7-3-9.1-1.5-2.3-3.1-3.3-11.6-7.2-1.4-.7-3-2.3-3.6-3.6-.7-1.5-1.9-18.3-2.9-43-1.6-38.7-2.2-45-4.4-45-.6 0-4.4 4.2-8.6 9.2zm6.5 14c.1 24.2 1.5 47.9 3.5 60.2 1.8 11 3.5 13.6 8.8 13.6 4.1 0 8.5 2.9 9.7 6.3 1.9 5.5 1.4 6.1-6.2 9-16.6 6.3-18.8 7.2-21 8.8-3 2.3-1.5 3.6 2.4 2.1 2.9-1.1 2.9-1 1.4.7s-2.2 4.1-1.1 4.1c.3 0 2.8-1.1 5.5-2.5 4.8-2.5 20.6-8.5 22.2-8.5 2 0 .5 2.9-1.8 3.4-3.5.9-19.3 8.6-20 9.8-1.3 2 1.2 2.7 4.1 1.2 1.7-.9 6.9-3.4 11.8-5.5 7.4-3.3 9-3.7 10.7-2.7 2.4 1.5 2.6 3.8.4 3.8-1.8 0-15.4 5.7-16.8 7.1-.6.6-.6 1.2 0 1.8.5.6 5-.6 11.9-3.4l11-4.4 3 2c1.7 1.1 7.4 4.2 12.7 7 5.3 2.8 10 5.8 10.2 6.7 1 2.9-1 7.8-6.7 16.6-7.6 11.6-12.3 16.6-15.6 16.6-1.4 0-6 1-10.1 2.1-4.1 1.2-14.7 4-23.5 6.3s-17 4.7-18.1 5.4c-4.4 2.4-3.9 5.5 2.5 17.7 3.2 6.2 7.8 14.1 10 17.5 2.3 3.4 4.1 6.5 4.1 7 0 1.1-4.6 4-6.6 4-.9 0-2.8-.8-4.2-1.9-4.2-2.9-12.7-7-20-9.5-12-4.2-18.7-5.1-38.2-5.1H91.5l-7.2 3.6c-7.3 3.7-8.9 3.9-7.4 1 .5-.9 1.4-3.9 1.9-6.6 1.8-8.8 2.9-12.1 4.6-14.8 3.2-4.7-.3-6.3-5.4-2.5-1.6 1.2-3.2 1.9-3.5 1.6-.3-.3 1.7-2.2 4.5-4.3 5.1-3.8 6.2-6.1 3.4-7.2-.9-.3-6.4.8-12.3 2.6-14.1 4.2-28.2 7.4-28.9 6.6-.4-.4 1.8-2.7 4.8-5.3 7.6-6.4 11.5-10.5 17.5-18.7 7.2-9.6 11.6-17.7 10.6-19.4-1.7-2.7-4.7.1-12.1 11.1-4.1 6.2-9.8 13.7-12.6 16.7-4.7 5.1-5.2 5.3-8 4.4l-2.9-1 .3-7.6c.4-6.9.2-7.6-1.8-8.7-1.3-.7-3.6-.9-5.6-.5-1.9.3-3.4.2-3.4-.2 0-.5 1.6-3.9 3.6-7.6 2.9-5.4 3.3-7 2.4-8.7-1.1-2.1-1.8-2.3-6.4-2-2.8.2-2.7-.1 4.4-8.6 8.1-9.8 10.2-13.5 8.2-14.2-.6-.2-1.2-1.3-1.2-2.3C39 132.3 58.2 82 65.7 68c12-22.4 25.4-42 28.8-42 1.5 0 2.9 5.7 5 20.5.8 5.5 2.3 16.9 3.5 25.3 1.2 8.4 2.6 16.7 3.1 18.5.5 1.7.9 4.7.9 6.5 0 4 1.4 4.7 7.6 3.7 5.8-.8 7-2.1 15.4-16.5 14.4-24.7 40.9-64 43.2-64 .4 0 .8 6 .8 13.2zm1.8 174.5c.6 1.6 1.6 5 2.2 7.8.6 2.7 2.7 9.2 4.6 14.3 3.6 9.4 3.6 11.2.5 11.2-1.3 0-3-2.9-6.5-10.9l-4.7-10.8 1.7-5.2c1.2-3.9 1.4-5.5.5-6.4-1.3-1.3-1.4-2.7-.2-2.7.5 0 1.3 1.2 1.9 2.7z"/><path d="M164.8 44.7c-1.7 2-6.4 22.6-7.4 32.1-.6 5.8-.5 6.4 1.2 6 1.3-.2 2.2-2.2 3.4-7.8 2.9-13.1 3-13.6 4.1-11.9.5.7.9 3 .9 5 0 3.8 2.2 6.9 3.5 4.9.9-1.4-.5-26.1-1.7-28.3-.5-.9-1.2-1.7-1.7-1.7-.4 0-1.5.8-2.3 1.7zM90 56.2c-3.5 8.1-9.3 34-10.4 46.6-.4 4.5 1 6.6 2.6 3.8.8-1.5 1.1-1.4 2.8.6l1.8 2.3 6-6.1 6-6.1-1.5-5.4c-1.1-3.7-1.6-10.8-1.7-22.6-.1-16-.2-17.3-1.9-17.3-1.2 0-2.5 1.5-3.7 4.2zm1.4 37.7c.6 1-6.2 8.1-7.7 8.1-.5 0-.6-.8-.3-1.8.3-.9 1.2-4.9 2-8.7.9-3.9 2.1-8.8 2.8-11l1.3-4 .7 8.2c.4 4.6.9 8.7 1.2 9.2zM182 117.9c-8.2 2.6-13 5.1-13 6.8 0 1 .6 1.3 1.8.9.9-.3 5.9-1.9 11-3.7 5.6-1.8 9.1-3.6 8.9-4.2-.6-1.8-2.7-1.8-8.7.2zM134.5 122.7c.3 1.6 1 5.5 1.5 8.8.5 3.3 1.2 7.2 1.5 8.7.9 3.3 1.9 3.1-14.7 1.8-12.5-.9-27.2 0-29.1 1.9-.9.9-.8 1.7.3 3.4.7 1.2 1.7 4.5 2.1 7.4 1.7 12.3 10.9 24.8 21.1 28.7 6.9 2.7 20.1 1.8 28.8-1.8 14.7-6 24.4-15.3 27.2-25.9 1.1-4.4 1.1-5-.5-5.8-1.2-.7-1.7-2.3-1.7-5.1 0-3.7-.6-4.7-4.7-8.7-2.7-2.6-8.2-7.2-12.4-10.4-7.4-5.5-7.9-5.7-13.9-5.7h-6.2l.7 2.7zm13.6 4.2c7.5 4.7 18.9 15 18.9 17.1 0 1-.4 2.1-.9 2.4-1.6 1-11.4-1.5-17.2-4.5-6.2-3.1-8.9-7.1-8.9-13.1 0-5.8 1.5-6.1 8.1-1.9zm-26.5 23.6c19.9 1.9 20.4 2 20.4 4.8.1 7.2 3.6 8.9 5.6 2.7 1.2-3.4 1.4-3.5 5.5-3.2 6.7.5 11.9 2.1 11.9 3.7 0 1.9-6.3 7.9-11.7 11.1-10.4 6.1-24.9 8.3-32.8 5-7.5-3.2-14.9-12.1-17.3-20.8-1.5-5.6-3.1-5.3 18.4-3.3zM62.2 141.1c-6.7 5.1-18 15.7-19.3 18.1-1.6 3 .8 2.1 4.6-1.7 2-1.9 7.8-6.9 13-11.1 5.2-4.2 9.2-8 8.9-8.5-.8-1.4-1.5-1.1-7.2 3.2zM203 144.5c-6.8 3.1-9.2 5.4-6.5 6.1 1.5.4 16-7 15.8-8.1-.3-1.8-1.8-1.5-9.3 2zM226 159.3c0 .8 1.1 2.4 2.4 3.6 3.2 3 4.6.8 1.5-2.5-2.5-2.7-3.9-3.1-3.9-1.1zM59 159.7c-8.8 3.2-16 6.7-16 7.9 0 2 2.5 1.7 9.8-1.2 3.5-1.4 6.6-2.4 6.8-2.1.2.2-.9 2.8-2.5 5.8-3.6 6.6-5.6 13.8-4.3 15.1.6.6 1.4-.4 2.2-2.4.7-1.8 3-7.2 5.3-12 4.7-10.2 4.4-13.2-1.3-11.1zM106 194.6c-7.7 3.3-10.5 9.3-5.6 11.6 1.9.8 3.3.7 5.9-.3 3.7-1.5 12.7-9.1 12.7-10.7 0-2.4-7.9-2.8-13-.6zM107.6 209.1c-4.7 3.7-5.6 7.9-2 9.3 3.3 1.2 14.3-5.7 14.4-9 0-3-8.7-3.2-12.4-.3z"/></svg>